<mxfile host="app.diagrams.net" modified="2024-05-09T03:48:22.909Z" agent="Mozilla/5.0 (Macintosh; Intel Mac OS X 10_15_7) AppleWebKit/537.36 (KHTML, like Gecko) Chrome/116.0.0.0 Safari/537.36" version="24.2.2" etag="97xVA8JmdWHi_MfGCS9A" type="github">
  <diagram name="第 1 页" id="0vfUEZrYk6t0Ua8X4BwB">
    <mxGraphModel>
      <root>
        <mxCell id="0" />
        <mxCell id="1" parent="0" />
      </root>
    </mxGraphModel>
  </diagram>
</mxfile>
